<?xml version="1.0" standalone="no"?>
<!DOCTYPE svg PUBLIC "-//W3C//DTD SVG 1.1//EN" "http://www.w3.org/Graphics/SVG/1.1/DTD/svg11.dtd">
<svg version="1.1" width="1200" height="630" onload="init(evt)" viewBox="0 0 1200 630" xmlns="http://www.w3.org/2000/svg" xmlns:xlink="http://www.w3.org/1999/xlink">
<!-- Flame graph stack visualization. See https://github.com/brendangregg/FlameGraph for latest version, and http://www.brendangregg.com/flamegraphs.html for examples. -->
<!-- NOTES:  -->
<defs>
	<linearGradient id="background" y1="0" y2="1" x1="0" x2="0" >
		<stop stop-color="#eeeeee" offset="5%" />
		<stop stop-color="#eeeeb0" offset="95%" />
	</linearGradient>
</defs>
<style type="text/css">
	text { font-family:Verdana; font-size:12px; fill:rgb(0,0,0); }
	#search, #ignorecase { opacity:0.1; cursor:pointer; }
	#search:hover, #search.show, #ignorecase:hover, #ignorecase.show { opacity:1; }
	#subtitle { text-anchor:middle; font-color:rgb(160,160,160); }
	#title { text-anchor:middle; font-size:17px}
	#unzoom { cursor:pointer; }
	#frames > *:hover { stroke:black; stroke-width:0.5; cursor:pointer; }
	.hide { display:none; }
	.parent { opacity:0.5; }
</style>
<script type="text/ecmascript">
<![CDATA[
	"use strict";
	var details, searchbtn, unzoombtn, matchedtxt, svg, searching, currentSearchTerm, ignorecase, ignorecaseBtn;
	function init(evt) {
		details = document.getElementById("details").firstChild;
		searchbtn = document.getElementById("search");
		ignorecaseBtn = document.getElementById("ignorecase");
		unzoombtn = document.getElementById("unzoom");
		matchedtxt = document.getElementById("matched");
		svg = document.getElementsByTagName("svg")[0];
		searching = 0;
		currentSearchTerm = null;

		// use GET parameters to restore a flamegraphs state.
		var params = get_params();
		if (params.x && params.y)
			zoom(find_group(document.querySelector('[x="' + params.x + '"][y="' + params.y + '"]')));
                if (params.s) search(params.s);
	}

	// event listeners
	window.addEventListener("click", function(e) {
		var target = find_group(e.target);
		if (target) {
			if (target.nodeName == "a") {
				if (e.ctrlKey === false) return;
				e.preventDefault();
			}
			if (target.classList.contains("parent")) unzoom(true);
			zoom(target);
			if (!document.querySelector('.parent')) {
				// we have basically done a clearzoom so clear the url
				var params = get_params();
				if (params.x) delete params.x;
				if (params.y) delete params.y;
				history.replaceState(null, null, parse_params(params));
				unzoombtn.classList.add("hide");
				return;
			}

			// set parameters for zoom state
			var el = target.querySelector("rect");
			if (el && el.attributes && el.attributes.y && el.attributes._orig_x) {
				var params = get_params()
				params.x = el.attributes._orig_x.value;
				params.y = el.attributes.y.value;
				history.replaceState(null, null, parse_params(params));
			}
		}
		else if (e.target.id == "unzoom") clearzoom();
		else if (e.target.id == "search") search_prompt();
		else if (e.target.id == "ignorecase") toggle_ignorecase();
	}, false)

	// mouse-over for info
	// show
	window.addEventListener("mouseover", function(e) {
		var target = find_group(e.target);
		if (target) details.nodeValue = "Function: " + g_to_text(target);
	}, false)

	// clear
	window.addEventListener("mouseout", function(e) {
		var target = find_group(e.target);
		if (target) details.nodeValue = ' ';
	}, false)

	// ctrl-F for search
	// ctrl-I to toggle case-sensitive search
	window.addEventListener("keydown",function (e) {
		if (e.keyCode === 114 || (e.ctrlKey && e.keyCode === 70)) {
			e.preventDefault();
			search_prompt();
		}
		else if (e.ctrlKey && e.keyCode === 73) {
			e.preventDefault();
			toggle_ignorecase();
		}
	}, false)

	// functions
	function get_params() {
		var params = {};
		var paramsarr = window.location.search.substr(1).split('&');
		for (var i = 0; i < paramsarr.length; ++i) {
			var tmp = paramsarr[i].split("=");
			if (!tmp[0] || !tmp[1]) continue;
			params[tmp[0]]  = decodeURIComponent(tmp[1]);
		}
		return params;
	}
	function parse_params(params) {
		var uri = "?";
		for (var key in params) {
			uri += key + '=' + encodeURIComponent(params[key]) + '&';
		}
		if (uri.slice(-1) == "&")
			uri = uri.substring(0, uri.length - 1);
		if (uri == '?')
			uri = window.location.href.split('?')[0];
		return uri;
	}
	function find_child(node, selector) {
		var children = node.querySelectorAll(selector);
		if (children.length) return children[0];
	}
	function find_group(node) {
		var parent = node.parentElement;
		if (!parent) return;
		if (parent.id == "frames") return node;
		return find_group(parent);
	}
	function orig_save(e, attr, val) {
		if (e.attributes["_orig_" + attr] != undefined) return;
		if (e.attributes[attr] == undefined) return;
		if (val == undefined) val = e.attributes[attr].value;
		e.setAttribute("_orig_" + attr, val);
	}
	function orig_load(e, attr) {
		if (e.attributes["_orig_"+attr] == undefined) return;
		e.attributes[attr].value = e.attributes["_orig_" + attr].value;
		e.removeAttribute("_orig_"+attr);
	}
	function g_to_text(e) {
		var text = find_child(e, "title").firstChild.nodeValue;
		return (text)
	}
	function g_to_func(e) {
		var func = g_to_text(e);
		// if there's any manipulation we want to do to the function
		// name before it's searched, do it here before returning.
		return (func);
	}
	function update_text(e) {
		var r = find_child(e, "rect");
		var t = find_child(e, "text");
		var w = parseFloat(r.attributes.width.value) -3;
		var txt = find_child(e, "title").textContent.replace(/\([^(]*\)$/,"");
		t.attributes.x.value = parseFloat(r.attributes.x.value) + 3;

		// Smaller than this size won't fit anything
		if (w < 2 * 12 * 0.59) {
			t.textContent = "";
			return;
		}

		t.textContent = txt;
		var sl = t.getSubStringLength(0, txt.length);
		// check if only whitespace or if we can fit the entire string into width w
		if (/^ *$/.test(txt) || sl < w)
			return;

		// this isn't perfect, but gives a good starting point
		// and avoids calling getSubStringLength too often
		var start = Math.floor((w/sl) * txt.length);
		for (var x = start; x > 0; x = x-2) {
			if (t.getSubStringLength(0, x + 2) <= w) {
				t.textContent = txt.substring(0, x) + "..";
				return;
			}
		}
		t.textContent = "";
	}

	// zoom
	function zoom_reset(e) {
		if (e.attributes != undefined) {
			orig_load(e, "x");
			orig_load(e, "width");
		}
		if (e.childNodes == undefined) return;
		for (var i = 0, c = e.childNodes; i < c.length; i++) {
			zoom_reset(c[i]);
		}
	}
	function zoom_child(e, x, ratio) {
		if (e.attributes != undefined) {
			if (e.attributes.x != undefined) {
				orig_save(e, "x");
				e.attributes.x.value = (parseFloat(e.attributes.x.value) - x - 10) * ratio + 10;
				if (e.tagName == "text")
					e.attributes.x.value = find_child(e.parentNode, "rect[x]").attributes.x.value + 3;
			}
			if (e.attributes.width != undefined) {
				orig_save(e, "width");
				e.attributes.width.value = parseFloat(e.attributes.width.value) * ratio;
			}
		}

		if (e.childNodes == undefined) return;
		for (var i = 0, c = e.childNodes; i < c.length; i++) {
			zoom_child(c[i], x - 10, ratio);
		}
	}
	function zoom_parent(e) {
		if (e.attributes) {
			if (e.attributes.x != undefined) {
				orig_save(e, "x");
				e.attributes.x.value = 10;
			}
			if (e.attributes.width != undefined) {
				orig_save(e, "width");
				e.attributes.width.value = parseInt(svg.width.baseVal.value) - (10 * 2);
			}
		}
		if (e.childNodes == undefined) return;
		for (var i = 0, c = e.childNodes; i < c.length; i++) {
			zoom_parent(c[i]);
		}
	}
	function zoom(node) {
		var attr = find_child(node, "rect").attributes;
		var width = parseFloat(attr.width.value);
		var xmin = parseFloat(attr.x.value);
		var xmax = parseFloat(xmin + width);
		var ymin = parseFloat(attr.y.value);
		var ratio = (svg.width.baseVal.value - 2 * 10) / width;

		// XXX: Workaround for JavaScript float issues (fix me)
		var fudge = 0.0001;

		unzoombtn.classList.remove("hide");

		var el = document.getElementById("frames").children;
		for (var i = 0; i < el.length; i++) {
			var e = el[i];
			var a = find_child(e, "rect").attributes;
			var ex = parseFloat(a.x.value);
			var ew = parseFloat(a.width.value);
			var upstack;
			// Is it an ancestor
			if (0 == 0) {
				upstack = parseFloat(a.y.value) > ymin;
			} else {
				upstack = parseFloat(a.y.value) < ymin;
			}
			if (upstack) {
				// Direct ancestor
				if (ex <= xmin && (ex+ew+fudge) >= xmax) {
					e.classList.add("parent");
					zoom_parent(e);
					update_text(e);
				}
				// not in current path
				else
					e.classList.add("hide");
			}
			// Children maybe
			else {
				// no common path
				if (ex < xmin || ex + fudge >= xmax) {
					e.classList.add("hide");
				}
				else {
					zoom_child(e, xmin, ratio);
					update_text(e);
				}
			}
		}
		search();
	}
	function unzoom(dont_update_text) {
		unzoombtn.classList.add("hide");
		var el = document.getElementById("frames").children;
		for(var i = 0; i < el.length; i++) {
			el[i].classList.remove("parent");
			el[i].classList.remove("hide");
			zoom_reset(el[i]);
			if(!dont_update_text) update_text(el[i]);
		}
		search();
	}
	function clearzoom() {
		unzoom();

		// remove zoom state
		var params = get_params();
		if (params.x) delete params.x;
		if (params.y) delete params.y;
		history.replaceState(null, null, parse_params(params));
	}

	// search
	function toggle_ignorecase() {
		ignorecase = !ignorecase;
		if (ignorecase) {
			ignorecaseBtn.classList.add("show");
		} else {
			ignorecaseBtn.classList.remove("show");
		}
		reset_search();
		search();
	}
	function reset_search() {
		var el = document.querySelectorAll("#frames rect");
		for (var i = 0; i < el.length; i++) {
			orig_load(el[i], "fill")
		}
		var params = get_params();
		delete params.s;
		history.replaceState(null, null, parse_params(params));
	}
	function search_prompt() {
		if (!searching) {
			var term = prompt("Enter a search term (regexp " +
			    "allowed, eg: ^ext4_)"
			    + (ignorecase ? ", ignoring case" : "")
			    + "\nPress Ctrl-i to toggle case sensitivity", "");
			if (term != null) search(term);
		} else {
			reset_search();
			searching = 0;
			currentSearchTerm = null;
			searchbtn.classList.remove("show");
			searchbtn.firstChild.nodeValue = "Search"
			matchedtxt.classList.add("hide");
			matchedtxt.firstChild.nodeValue = ""
		}
	}
	function search(term) {
		if (term) currentSearchTerm = term;
		if (currentSearchTerm === null) return;

		var re = new RegExp(currentSearchTerm, ignorecase ? 'i' : '');
		var el = document.getElementById("frames").children;
		var matches = new Object();
		var maxwidth = 0;
		for (var i = 0; i < el.length; i++) {
			var e = el[i];
			var func = g_to_func(e);
			var rect = find_child(e, "rect");
			if (func == null || rect == null)
				continue;

			// Save max width. Only works as we have a root frame
			var w = parseFloat(rect.attributes.width.value);
			if (w > maxwidth)
				maxwidth = w;

			if (func.match(re)) {
				// highlight
				var x = parseFloat(rect.attributes.x.value);
				orig_save(rect, "fill");
				rect.attributes.fill.value = "rgb(230,0,230)";

				// remember matches
				if (matches[x] == undefined) {
					matches[x] = w;
				} else {
					if (w > matches[x]) {
						// overwrite with parent
						matches[x] = w;
					}
				}
				searching = 1;
			}
		}
		if (!searching)
			return;
		var params = get_params();
		params.s = currentSearchTerm;
		history.replaceState(null, null, parse_params(params));

		searchbtn.classList.add("show");
		searchbtn.firstChild.nodeValue = "Reset Search";

		// calculate percent matched, excluding vertical overlap
		var count = 0;
		var lastx = -1;
		var lastw = 0;
		var keys = Array();
		for (k in matches) {
			if (matches.hasOwnProperty(k))
				keys.push(k);
		}
		// sort the matched frames by their x location
		// ascending, then width descending
		keys.sort(function(a, b){
			return a - b;
		});
		// Step through frames saving only the biggest bottom-up frames
		// thanks to the sort order. This relies on the tree property
		// where children are always smaller than their parents.
		var fudge = 0.0001;	// JavaScript floating point
		for (var k in keys) {
			var x = parseFloat(keys[k]);
			var w = matches[keys[k]];
			if (x >= lastx + lastw - fudge) {
				count += w;
				lastx = x;
				lastw = w;
			}
		}
		// display matched percent
		matchedtxt.classList.remove("hide");
		var pct = 100 * count / maxwidth;
		if (pct != 100) pct = pct.toFixed(1)
		matchedtxt.firstChild.nodeValue = "Matched: " + pct + "%";
	}
]]>
</script>
<rect x="0.0" y="0" width="1200.0" height="630.0" fill="url(#background)"  />
<text id="title" x="600.00" y="24" >Flame Graph</text>
<text id="details" x="10.00" y="613" > </text>
<text id="unzoom" x="10.00" y="24" class="hide">Reset Zoom</text>
<text id="search" x="1090.00" y="24" >Search</text>
<text id="ignorecase" x="1174.00" y="24" >ic</text>
<text id="matched" x="1090.00" y="613" > </text>
<g id="frames">
<g >
<title>dev_hard_start_xmit (1 samples, 7.69%)</title><rect x="463.8" y="181" width="90.8" height="15.0" fill="rgb(219,66,15)" rx="2" ry="2" />
<text  x="466.85" y="191.5" >dev_hard_s..</text>
</g>
<g >
<title>__ip_finish_output (1 samples, 7.69%)</title><rect x="917.7" y="277" width="90.8" height="15.0" fill="rgb(215,47,11)" rx="2" ry="2" />
<text  x="920.69" y="287.5" >__ip_finis..</text>
</g>
<g >
<title>should_failslab (1 samples, 7.69%)</title><rect x="917.7" y="133" width="90.8" height="15.0" fill="rgb(206,8,2)" rx="2" ry="2" />
<text  x="920.69" y="143.5" >should_fai..</text>
</g>
<g >
<title>ep_insert (1 samples, 7.69%)</title><rect x="1008.5" y="485" width="90.7" height="15.0" fill="rgb(253,225,53)" rx="2" ry="2" />
<text  x="1011.46" y="495.5" >ep_insert</text>
</g>
<g >
<title>iowrite16 (1 samples, 7.69%)</title><rect x="463.8" y="133" width="90.8" height="15.0" fill="rgb(217,57,13)" rx="2" ry="2" />
<text  x="466.85" y="143.5" >iowrite16</text>
</g>
<g >
<title>tasklet_action_common.isra.0 (1 samples, 7.69%)</title><rect x="463.8" y="437" width="90.8" height="15.0" fill="rgb(224,88,21)" rx="2" ry="2" />
<text  x="466.85" y="447.5" >tasklet_ac..</text>
</g>
<g >
<title>ip_finish_output2 (1 samples, 7.69%)</title><rect x="917.7" y="261" width="90.8" height="15.0" fill="rgb(219,67,16)" rx="2" ry="2" />
<text  x="920.69" y="271.5" >ip_finish_..</text>
</g>
<g >
<title>start_xmit (1 samples, 7.69%)</title><rect x="463.8" y="165" width="90.8" height="15.0" fill="rgb(238,153,36)" rx="2" ry="2" />
<text  x="466.85" y="175.5" >start_xmit</text>
</g>
<g >
<title>tcp_tsq_write.part.0 (1 samples, 7.69%)</title><rect x="826.9" y="277" width="90.8" height="15.0" fill="rgb(226,96,23)" rx="2" ry="2" />
<text  x="829.92" y="287.5" >tcp_tsq_wr..</text>
</g>
<g >
<title>security_socket_setsockopt (1 samples, 7.69%)</title><rect x="736.2" y="453" width="90.7" height="15.0" fill="rgb(232,124,29)" rx="2" ry="2" />
<text  x="739.15" y="463.5" >security_s..</text>
</g>
<g >
<title>tcp_tasklet_func (1 samples, 7.69%)</title><rect x="826.9" y="309" width="90.8" height="15.0" fill="rgb(249,204,48)" rx="2" ry="2" />
<text  x="829.92" y="319.5" >tcp_taskle..</text>
</g>
<g >
<title>apparmor_socket_setsockopt (1 samples, 7.69%)</title><rect x="736.2" y="437" width="90.7" height="15.0" fill="rgb(224,88,21)" rx="2" ry="2" />
<text  x="739.15" y="447.5" >apparmor_s..</text>
</g>
<g >
<title>do_IRQ (1 samples, 7.69%)</title><rect x="826.9" y="389" width="90.8" height="15.0" fill="rgb(212,33,8)" rx="2" ry="2" />
<text  x="829.92" y="399.5" >do_IRQ</text>
</g>
<g >
<title>tcp_write_xmit (1 samples, 7.69%)</title><rect x="917.7" y="389" width="90.8" height="15.0" fill="rgb(231,122,29)" rx="2" ry="2" />
<text  x="920.69" y="399.5" >tcp_write_..</text>
</g>
<g >
<title>__ip_queue_xmit (1 samples, 7.69%)</title><rect x="463.8" y="325" width="90.8" height="15.0" fill="rgb(253,223,53)" rx="2" ry="2" />
<text  x="466.85" y="335.5" >__ip_queue..</text>
</g>
<g >
<title>ip_queue_xmit (1 samples, 7.69%)</title><rect x="917.7" y="357" width="90.8" height="15.0" fill="rgb(230,119,28)" rx="2" ry="2" />
<text  x="920.69" y="367.5" >ip_queue_x..</text>
</g>
<g >
<title>validate_xmit_skb (1 samples, 7.69%)</title><rect x="826.9" y="53" width="90.8" height="15.0" fill="rgb(222,82,19)" rx="2" ry="2" />
<text  x="829.92" y="63.5" >validate_x..</text>
</g>
<g >
<title>ip_output (1 samples, 7.69%)</title><rect x="917.7" y="309" width="90.8" height="15.0" fill="rgb(247,194,46)" rx="2" ry="2" />
<text  x="920.69" y="319.5" >ip_output</text>
</g>
<g >
<title>ip_output (1 samples, 7.69%)</title><rect x="463.8" y="293" width="90.8" height="15.0" fill="rgb(247,194,46)" rx="2" ry="2" />
<text  x="466.85" y="303.5" >ip_output</text>
</g>
<g >
<title>do_IRQ (1 samples, 7.69%)</title><rect x="1099.2" y="421" width="90.8" height="15.0" fill="rgb(212,33,8)" rx="2" ry="2" />
<text  x="1102.23" y="431.5" >do_IRQ</text>
</g>
<g >
<title>__ip_queue_xmit (1 samples, 7.69%)</title><rect x="826.9" y="213" width="90.8" height="15.0" fill="rgb(253,223,53)" rx="2" ry="2" />
<text  x="829.92" y="223.5" >__ip_queue..</text>
</g>
<g >
<title>start_xmit (1 samples, 7.69%)</title><rect x="917.7" y="181" width="90.8" height="15.0" fill="rgb(238,153,36)" rx="2" ry="2" />
<text  x="920.69" y="191.5" >start_xmit</text>
</g>
<g >
<title>sch_direct_xmit (1 samples, 7.69%)</title><rect x="463.8" y="197" width="90.8" height="15.0" fill="rgb(222,82,19)" rx="2" ry="2" />
<text  x="466.85" y="207.5" >sch_direct..</text>
</g>
<g >
<title>tcp_write_xmit (1 samples, 7.69%)</title><rect x="463.8" y="373" width="90.8" height="15.0" fill="rgb(231,122,29)" rx="2" ry="2" />
<text  x="466.85" y="383.5" >tcp_write_..</text>
</g>
<g >
<title>ep_poll (1 samples, 7.69%)</title><rect x="554.6" y="453" width="90.8" height="15.0" fill="rgb(238,151,36)" rx="2" ry="2" />
<text  x="557.62" y="463.5" >ep_poll</text>
</g>
<g >
<title>yyjson_doc_mut_copy (1 samples, 7.69%)</title><rect x="191.5" y="485" width="90.8" height="15.0" fill="rgb(230,116,27)" rx="2" ry="2" />
<text  x="194.54" y="495.5" >yyjson_doc..</text>
</g>
<g >
<title>json_endpoint (3 samples, 23.08%)</title><rect x="191.5" y="501" width="272.3" height="15.0" fill="rgb(206,8,1)" rx="2" ry="2" />
<text  x="194.54" y="511.5" >json_endpoint</text>
</g>
<g >
<title>tasklet_action (1 samples, 7.69%)</title><rect x="463.8" y="453" width="90.8" height="15.0" fill="rgb(218,64,15)" rx="2" ry="2" />
<text  x="466.85" y="463.5" >tasklet_ac..</text>
</g>
<g >
<title>[unknown] (5 samples, 38.46%)</title><rect x="100.8" y="533" width="453.8" height="15.0" fill="rgb(210,24,5)" rx="2" ry="2" />
<text  x="103.77" y="543.5" >[unknown]</text>
</g>
<g >
<title>kmem_cache_alloc (1 samples, 7.69%)</title><rect x="1008.5" y="453" width="90.7" height="15.0" fill="rgb(225,95,22)" rx="2" ry="2" />
<text  x="1011.46" y="463.5" >kmem_cache..</text>
</g>
<g >
<title>tcp_setsockopt (2 samples, 15.38%)</title><rect x="826.9" y="437" width="181.6" height="15.0" fill="rgb(212,33,7)" rx="2" ry="2" />
<text  x="829.92" y="447.5" >tcp_setsockopt</text>
</g>
<g >
<title>do_epoll_wait (1 samples, 7.69%)</title><rect x="554.6" y="469" width="90.8" height="15.0" fill="rgb(211,31,7)" rx="2" ry="2" />
<text  x="557.62" y="479.5" >do_epoll_w..</text>
</g>
<g >
<title>__x64_sys_epoll_wait (1 samples, 7.69%)</title><rect x="554.6" y="485" width="90.8" height="15.0" fill="rgb(206,6,1)" rx="2" ry="2" />
<text  x="557.62" y="495.5" >__x64_sys_..</text>
</g>
<g >
<title>tcp_tasklet_func (1 samples, 7.69%)</title><rect x="463.8" y="421" width="90.8" height="15.0" fill="rgb(249,204,48)" rx="2" ry="2" />
<text  x="466.85" y="431.5" >tcp_taskle..</text>
</g>
<g >
<title>schedule_hrtimeout_range_clock (1 samples, 7.69%)</title><rect x="554.6" y="421" width="90.8" height="15.0" fill="rgb(222,81,19)" rx="2" ry="2" />
<text  x="557.62" y="431.5" >schedule_h..</text>
</g>
<g >
<title>virtqueue_add_outbuf (1 samples, 7.69%)</title><rect x="917.7" y="165" width="90.8" height="15.0" fill="rgb(224,91,21)" rx="2" ry="2" />
<text  x="920.69" y="175.5" >virtqueue_..</text>
</g>
<g >
<title>__x64_sys_epoll_ctl (2 samples, 15.38%)</title><rect x="1008.5" y="501" width="181.5" height="15.0" fill="rgb(242,174,41)" rx="2" ry="2" />
<text  x="1011.46" y="511.5" >__x64_sys_epoll_ctl</text>
</g>
<g >
<title>dev_hard_start_xmit (1 samples, 7.69%)</title><rect x="917.7" y="197" width="90.8" height="15.0" fill="rgb(219,66,15)" rx="2" ry="2" />
<text  x="920.69" y="207.5" >dev_hard_s..</text>
</g>
<g >
<title>irq_exit (1 samples, 7.69%)</title><rect x="1099.2" y="405" width="90.8" height="15.0" fill="rgb(249,206,49)" rx="2" ry="2" />
<text  x="1102.23" y="415.5" >irq_exit</text>
</g>
<g >
<title>yyjson_mut_doc_new (1 samples, 7.69%)</title><rect x="282.3" y="485" width="90.8" height="15.0" fill="rgb(210,24,5)" rx="2" ry="2" />
<text  x="285.31" y="495.5" >yyjson_mut..</text>
</g>
<g >
<title>aa_sk_perm (1 samples, 7.69%)</title><rect x="736.2" y="405" width="90.7" height="15.0" fill="rgb(232,125,30)" rx="2" ry="2" />
<text  x="739.15" y="415.5" >aa_sk_perm</text>
</g>
<g >
<title>ip_queue_xmit (1 samples, 7.69%)</title><rect x="826.9" y="229" width="90.8" height="15.0" fill="rgb(230,119,28)" rx="2" ry="2" />
<text  x="829.92" y="239.5" >ip_queue_x..</text>
</g>
<g >
<title>setsockopt (4 samples, 30.77%)</title><rect x="645.4" y="533" width="363.1" height="15.0" fill="rgb(238,153,36)" rx="2" ry="2" />
<text  x="648.38" y="543.5" >setsockopt</text>
</g>
<g >
<title>[unknown] (1 samples, 7.69%)</title><rect x="100.8" y="517" width="90.7" height="15.0" fill="rgb(210,24,5)" rx="2" ry="2" />
<text  x="103.77" y="527.5" >[unknown]</text>
</g>
<g >
<title>irq_exit (1 samples, 7.69%)</title><rect x="463.8" y="485" width="90.8" height="15.0" fill="rgb(249,206,49)" rx="2" ry="2" />
<text  x="466.85" y="495.5" >irq_exit</text>
</g>
<g >
<title>ip_finish_output (1 samples, 7.69%)</title><rect x="463.8" y="277" width="90.8" height="15.0" fill="rgb(242,173,41)" rx="2" ry="2" />
<text  x="466.85" y="287.5" >ip_finish_..</text>
</g>
<g >
<title>virtqueue_notify (1 samples, 7.69%)</title><rect x="463.8" y="149" width="90.8" height="15.0" fill="rgb(231,120,28)" rx="2" ry="2" />
<text  x="466.85" y="159.5" >virtqueue_..</text>
</g>
<g >
<title>iowrite16 (1 samples, 7.69%)</title><rect x="463.8" y="117" width="90.8" height="15.0" fill="rgb(217,57,13)" rx="2" ry="2" />
<text  x="466.85" y="127.5" >iowrite16</text>
</g>
<g >
<title>MHD-single (13 samples, 100.00%)</title><rect x="10.0" y="565" width="1180.0" height="15.0" fill="rgb(223,86,20)" rx="2" ry="2" />
<text  x="13.00" y="575.5" >MHD-single</text>
</g>
<g >
<title>__dev_queue_xmit (1 samples, 7.69%)</title><rect x="463.8" y="213" width="90.8" height="15.0" fill="rgb(244,182,43)" rx="2" ry="2" />
<text  x="466.85" y="223.5" >__dev_queu..</text>
</g>
<g >
<title>net_rx_action (1 samples, 7.69%)</title><rect x="1099.2" y="373" width="90.8" height="15.0" fill="rgb(240,164,39)" rx="2" ry="2" />
<text  x="1102.23" y="383.5" >net_rx_act..</text>
</g>
<g >
<title>aa_sk_perm (1 samples, 7.69%)</title><rect x="736.2" y="421" width="90.7" height="15.0" fill="rgb(232,125,30)" rx="2" ry="2" />
<text  x="739.15" y="431.5" >aa_sk_perm</text>
</g>
<g >
<title>validate_xmit_skb_list (1 samples, 7.69%)</title><rect x="826.9" y="69" width="90.8" height="15.0" fill="rgb(240,165,39)" rx="2" ry="2" />
<text  x="829.92" y="79.5" >validate_x..</text>
</g>
<g >
<title>_raw_spin_lock (1 samples, 7.69%)</title><rect x="1099.2" y="341" width="90.8" height="15.0" fill="rgb(239,160,38)" rx="2" ry="2" />
<text  x="1102.23" y="351.5" >_raw_spin_..</text>
</g>
<g >
<title>ip_finish_output2 (1 samples, 7.69%)</title><rect x="826.9" y="133" width="90.8" height="15.0" fill="rgb(219,67,16)" rx="2" ry="2" />
<text  x="829.92" y="143.5" >ip_finish_..</text>
</g>
<g >
<title>ret_from_intr (1 samples, 7.69%)</title><rect x="826.9" y="405" width="90.8" height="15.0" fill="rgb(206,8,1)" rx="2" ry="2" />
<text  x="829.92" y="415.5" >ret_from_i..</text>
</g>
<g >
<title>ret_from_intr (1 samples, 7.69%)</title><rect x="463.8" y="517" width="90.8" height="15.0" fill="rgb(206,8,1)" rx="2" ry="2" />
<text  x="466.85" y="527.5" >ret_from_i..</text>
</g>
<g >
<title>do_syscall_64 (1 samples, 7.69%)</title><rect x="554.6" y="501" width="90.8" height="15.0" fill="rgb(209,20,4)" rx="2" ry="2" />
<text  x="557.62" y="511.5" >do_syscall..</text>
</g>
<g >
<title>yyjson_read_opts (1 samples, 7.69%)</title><rect x="373.1" y="485" width="90.7" height="15.0" fill="rgb(223,84,20)" rx="2" ry="2" />
<text  x="376.08" y="495.5" >yyjson_rea..</text>
</g>
<g >
<title>entry_SYSCALL_64_after_hwframe (1 samples, 7.69%)</title><rect x="554.6" y="517" width="90.8" height="15.0" fill="rgb(218,63,15)" rx="2" ry="2" />
<text  x="557.62" y="527.5" >entry_SYSC..</text>
</g>
<g >
<title>__softirqentry_text_start (1 samples, 7.69%)</title><rect x="826.9" y="357" width="90.8" height="15.0" fill="rgb(234,135,32)" rx="2" ry="2" />
<text  x="829.92" y="367.5" >__softirqe..</text>
</g>
<g >
<title>kmem_cache_alloc (1 samples, 7.69%)</title><rect x="1008.5" y="469" width="90.7" height="15.0" fill="rgb(225,95,22)" rx="2" ry="2" />
<text  x="1011.46" y="479.5" >kmem_cache..</text>
</g>
<g >
<title>ip_local_out (1 samples, 7.69%)</title><rect x="917.7" y="325" width="90.8" height="15.0" fill="rgb(233,131,31)" rx="2" ry="2" />
<text  x="920.69" y="335.5" >ip_local_out</text>
</g>
<g >
<title>tcp_tsq_write.part.0 (1 samples, 7.69%)</title><rect x="463.8" y="389" width="90.8" height="15.0" fill="rgb(226,96,23)" rx="2" ry="2" />
<text  x="466.85" y="399.5" >tcp_tsq_wr..</text>
</g>
<g >
<title>do_syscall_64 (4 samples, 30.77%)</title><rect x="645.4" y="501" width="363.1" height="15.0" fill="rgb(209,20,4)" rx="2" ry="2" />
<text  x="648.38" y="511.5" >do_syscall_64</text>
</g>
<g >
<title>__x64_sys_setsockopt (4 samples, 30.77%)</title><rect x="645.4" y="485" width="363.1" height="15.0" fill="rgb(206,5,1)" rx="2" ry="2" />
<text  x="648.38" y="495.5" >__x64_sys_setsockopt</text>
</g>
<g >
<title>__softirqentry_text_start (1 samples, 7.69%)</title><rect x="1099.2" y="389" width="90.8" height="15.0" fill="rgb(234,135,32)" rx="2" ry="2" />
<text  x="1102.23" y="399.5" >__softirqe..</text>
</g>
<g >
<title>__tcp_push_pending_frames (1 samples, 7.69%)</title><rect x="917.7" y="405" width="90.8" height="15.0" fill="rgb(230,117,28)" rx="2" ry="2" />
<text  x="920.69" y="415.5" >__tcp_push..</text>
</g>
<g >
<title>__tcp_transmit_skb (1 samples, 7.69%)</title><rect x="826.9" y="245" width="90.8" height="15.0" fill="rgb(231,122,29)" rx="2" ry="2" />
<text  x="829.92" y="255.5" >__tcp_tran..</text>
</g>
<g >
<title>__cgroup_bpf_run_filter_setsockopt (1 samples, 7.69%)</title><rect x="645.4" y="453" width="90.8" height="15.0" fill="rgb(227,101,24)" rx="2" ry="2" />
<text  x="648.38" y="463.5" >__cgroup_b..</text>
</g>
<g >
<title>native_queued_spin_lock_slowpath (1 samples, 7.69%)</title><rect x="1099.2" y="325" width="90.8" height="15.0" fill="rgb(238,153,36)" rx="2" ry="2" />
<text  x="1102.23" y="335.5" >native_que..</text>
</g>
<g >
<title>tasklet_action (1 samples, 7.69%)</title><rect x="826.9" y="341" width="90.8" height="15.0" fill="rgb(218,64,15)" rx="2" ry="2" />
<text  x="829.92" y="351.5" >tasklet_ac..</text>
</g>
<g >
<title>__ip_finish_output (1 samples, 7.69%)</title><rect x="463.8" y="261" width="90.8" height="15.0" fill="rgb(215,47,11)" rx="2" ry="2" />
<text  x="466.85" y="271.5" >__ip_finis..</text>
</g>
<g >
<title>dev_queue_xmit (1 samples, 7.69%)</title><rect x="917.7" y="245" width="90.8" height="15.0" fill="rgb(222,78,18)" rx="2" ry="2" />
<text  x="920.69" y="255.5" >dev_queue_..</text>
</g>
<g >
<title>entry_SYSCALL_64_after_hwframe (4 samples, 30.77%)</title><rect x="645.4" y="517" width="363.1" height="15.0" fill="rgb(218,63,15)" rx="2" ry="2" />
<text  x="648.38" y="527.5" >entry_SYSCALL_64_after_hwframe</text>
</g>
<g >
<title>kmalloc_array (1 samples, 7.69%)</title><rect x="917.7" y="149" width="90.8" height="15.0" fill="rgb(218,61,14)" rx="2" ry="2" />
<text  x="920.69" y="159.5" >kmalloc_ar..</text>
</g>
<g >
<title>[unknown] (11 samples, 84.62%)</title><rect x="10.0" y="549" width="998.5" height="15.0" fill="rgb(210,24,5)" rx="2" ry="2" />
<text  x="13.00" y="559.5" >[unknown]</text>
</g>
<g >
<title>ret_from_intr (1 samples, 7.69%)</title><rect x="1099.2" y="437" width="90.8" height="15.0" fill="rgb(206,8,1)" rx="2" ry="2" />
<text  x="1102.23" y="447.5" >ret_from_i..</text>
</g>
<g >
<title>__dev_queue_xmit (1 samples, 7.69%)</title><rect x="917.7" y="229" width="90.8" height="15.0" fill="rgb(244,182,43)" rx="2" ry="2" />
<text  x="920.69" y="239.5" >__dev_queu..</text>
</g>
<g >
<title>ip_queue_xmit (1 samples, 7.69%)</title><rect x="463.8" y="341" width="90.8" height="15.0" fill="rgb(230,119,28)" rx="2" ry="2" />
<text  x="466.85" y="351.5" >ip_queue_x..</text>
</g>
<g >
<title>should_failslab (1 samples, 7.69%)</title><rect x="917.7" y="117" width="90.8" height="15.0" fill="rgb(206,8,2)" rx="2" ry="2" />
<text  x="920.69" y="127.5" >should_fai..</text>
</g>
<g >
<title>tcp_tsq_handler (1 samples, 7.69%)</title><rect x="826.9" y="293" width="90.8" height="15.0" fill="rgb(210,23,5)" rx="2" ry="2" />
<text  x="829.92" y="303.5" >tcp_tsq_ha..</text>
</g>
<g >
<title>schedule (1 samples, 7.69%)</title><rect x="554.6" y="405" width="90.8" height="15.0" fill="rgb(254,229,54)" rx="2" ry="2" />
<text  x="557.62" y="415.5" >schedule</text>
</g>
<g >
<title>schedule_hrtimeout_range (1 samples, 7.69%)</title><rect x="554.6" y="437" width="90.8" height="15.0" fill="rgb(221,75,18)" rx="2" ry="2" />
<text  x="557.62" y="447.5" >schedule_h..</text>
</g>
<g >
<title>__cgroup_bpf_run_filter_setsockopt (1 samples, 7.69%)</title><rect x="645.4" y="437" width="90.8" height="15.0" fill="rgb(227,101,24)" rx="2" ry="2" />
<text  x="648.38" y="447.5" >__cgroup_b..</text>
</g>
<g >
<title>yyjson_mut_doc_new (1 samples, 7.69%)</title><rect x="191.5" y="469" width="90.8" height="15.0" fill="rgb(210,24,5)" rx="2" ry="2" />
<text  x="194.54" y="479.5" >yyjson_mut..</text>
</g>
<g >
<title>ip_local_out (1 samples, 7.69%)</title><rect x="463.8" y="309" width="90.8" height="15.0" fill="rgb(233,131,31)" rx="2" ry="2" />
<text  x="466.85" y="319.5" >ip_local_out</text>
</g>
<g >
<title>ip_finish_output (1 samples, 7.69%)</title><rect x="826.9" y="165" width="90.8" height="15.0" fill="rgb(242,173,41)" rx="2" ry="2" />
<text  x="829.92" y="175.5" >ip_finish_..</text>
</g>
<g >
<title>dev_queue_xmit (1 samples, 7.69%)</title><rect x="463.8" y="229" width="90.8" height="15.0" fill="rgb(222,78,18)" rx="2" ry="2" />
<text  x="466.85" y="239.5" >dev_queue_..</text>
</g>
<g >
<title>kmem_cache_free (1 samples, 7.69%)</title><rect x="1099.2" y="453" width="90.8" height="15.0" fill="rgb(254,225,53)" rx="2" ry="2" />
<text  x="1102.23" y="463.5" >kmem_cache..</text>
</g>
<g >
<title>epoll_ctl (2 samples, 15.38%)</title><rect x="1008.5" y="549" width="181.5" height="15.0" fill="rgb(224,91,21)" rx="2" ry="2" />
<text  x="1011.46" y="559.5" >epoll_ctl</text>
</g>
<g >
<title>tcp_tsq_handler (1 samples, 7.69%)</title><rect x="463.8" y="405" width="90.8" height="15.0" fill="rgb(210,23,5)" rx="2" ry="2" />
<text  x="466.85" y="415.5" >tcp_tsq_ha..</text>
</g>
<g >
<title>ip_output (1 samples, 7.69%)</title><rect x="826.9" y="181" width="90.8" height="15.0" fill="rgb(247,194,46)" rx="2" ry="2" />
<text  x="829.92" y="191.5" >ip_output</text>
</g>
<g >
<title>__tcp_transmit_skb (1 samples, 7.69%)</title><rect x="917.7" y="373" width="90.8" height="15.0" fill="rgb(231,122,29)" rx="2" ry="2" />
<text  x="920.69" y="383.5" >__tcp_tran..</text>
</g>
<g >
<title>sch_direct_xmit (1 samples, 7.69%)</title><rect x="917.7" y="213" width="90.8" height="15.0" fill="rgb(222,82,19)" rx="2" ry="2" />
<text  x="920.69" y="223.5" >sch_direct..</text>
</g>
<g >
<title>sch_direct_xmit (1 samples, 7.69%)</title><rect x="826.9" y="85" width="90.8" height="15.0" fill="rgb(222,82,19)" rx="2" ry="2" />
<text  x="829.92" y="95.5" >sch_direct..</text>
</g>
<g >
<title>__softirqentry_text_start (1 samples, 7.69%)</title><rect x="463.8" y="469" width="90.8" height="15.0" fill="rgb(234,135,32)" rx="2" ry="2" />
<text  x="466.85" y="479.5" >__softirqe..</text>
</g>
<g >
<title>native_queued_spin_lock_slowpath (1 samples, 7.69%)</title><rect x="1099.2" y="309" width="90.8" height="15.0" fill="rgb(238,153,36)" rx="2" ry="2" />
<text  x="1102.23" y="319.5" >native_que..</text>
</g>
<g >
<title>handle_request (3 samples, 23.08%)</title><rect x="191.5" y="517" width="272.3" height="15.0" fill="rgb(225,93,22)" rx="2" ry="2" />
<text  x="194.54" y="527.5" >handle_request</text>
</g>
<g >
<title>tasklet_action_common.isra.0 (1 samples, 7.69%)</title><rect x="826.9" y="325" width="90.8" height="15.0" fill="rgb(224,88,21)" rx="2" ry="2" />
<text  x="829.92" y="335.5" >tasklet_ac..</text>
</g>
<g >
<title>ip_finish_output2 (1 samples, 7.69%)</title><rect x="463.8" y="245" width="90.8" height="15.0" fill="rgb(219,67,16)" rx="2" ry="2" />
<text  x="466.85" y="255.5" >ip_finish_..</text>
</g>
<g >
<title>ip_local_out (1 samples, 7.69%)</title><rect x="826.9" y="197" width="90.8" height="15.0" fill="rgb(233,131,31)" rx="2" ry="2" />
<text  x="829.92" y="207.5" >ip_local_out</text>
</g>
<g >
<title>entry_SYSCALL_64_after_hwframe (2 samples, 15.38%)</title><rect x="1008.5" y="533" width="181.5" height="15.0" fill="rgb(218,63,15)" rx="2" ry="2" />
<text  x="1011.46" y="543.5" >entry_SYSCALL_64_after_..</text>
</g>
<g >
<title>do_tcp_setsockopt.isra.0 (1 samples, 7.69%)</title><rect x="917.7" y="421" width="90.8" height="15.0" fill="rgb(246,192,46)" rx="2" ry="2" />
<text  x="920.69" y="431.5" >do_tcp_set..</text>
</g>
<g >
<title>validate_xmit_skb (1 samples, 7.69%)</title><rect x="826.9" y="37" width="90.8" height="15.0" fill="rgb(222,82,19)" rx="2" ry="2" />
<text  x="829.92" y="47.5" >validate_x..</text>
</g>
<g >
<title>virtnet_poll_tx (1 samples, 7.69%)</title><rect x="1099.2" y="357" width="90.8" height="15.0" fill="rgb(237,147,35)" rx="2" ry="2" />
<text  x="1102.23" y="367.5" >virtnet_po..</text>
</g>
<g >
<title>do_syscall_64 (2 samples, 15.38%)</title><rect x="1008.5" y="517" width="181.5" height="15.0" fill="rgb(209,20,4)" rx="2" ry="2" />
<text  x="1011.46" y="527.5" >do_syscall_64</text>
</g>
<g >
<title>__tcp_transmit_skb (1 samples, 7.69%)</title><rect x="463.8" y="357" width="90.8" height="15.0" fill="rgb(231,122,29)" rx="2" ry="2" />
<text  x="466.85" y="367.5" >__tcp_tran..</text>
</g>
<g >
<title>epoll_wait (1 samples, 7.69%)</title><rect x="554.6" y="533" width="90.8" height="15.0" fill="rgb(238,154,36)" rx="2" ry="2" />
<text  x="557.62" y="543.5" >epoll_wait</text>
</g>
<g >
<title>__ip_queue_xmit (1 samples, 7.69%)</title><rect x="917.7" y="341" width="90.8" height="15.0" fill="rgb(253,223,53)" rx="2" ry="2" />
<text  x="920.69" y="351.5" >__ip_queue..</text>
</g>
<g >
<title>all (13 samples, 100%)</title><rect x="10.0" y="581" width="1180.0" height="15.0" fill="rgb(213,39,9)" rx="2" ry="2" />
<text  x="13.00" y="591.5" ></text>
</g>
<g >
<title>__get_user_4 (1 samples, 7.69%)</title><rect x="826.9" y="421" width="90.8" height="15.0" fill="rgb(218,60,14)" rx="2" ry="2" />
<text  x="829.92" y="431.5" >__get_user_4</text>
</g>
<g >
<title>schedule (1 samples, 7.69%)</title><rect x="554.6" y="389" width="90.8" height="15.0" fill="rgb(254,229,54)" rx="2" ry="2" />
<text  x="557.62" y="399.5" >schedule</text>
</g>
<g >
<title>__sys_setsockopt (4 samples, 30.77%)</title><rect x="645.4" y="469" width="363.1" height="15.0" fill="rgb(229,114,27)" rx="2" ry="2" />
<text  x="648.38" y="479.5" >__sys_setsockopt</text>
</g>
<g >
<title>ip_finish_output (1 samples, 7.69%)</title><rect x="917.7" y="293" width="90.8" height="15.0" fill="rgb(242,173,41)" rx="2" ry="2" />
<text  x="920.69" y="303.5" >ip_finish_..</text>
</g>
<g >
<title>tcp_write_xmit (1 samples, 7.69%)</title><rect x="826.9" y="261" width="90.8" height="15.0" fill="rgb(231,122,29)" rx="2" ry="2" />
<text  x="829.92" y="271.5" >tcp_write_..</text>
</g>
<g >
<title>sock_common_setsockopt (2 samples, 15.38%)</title><rect x="826.9" y="453" width="181.6" height="15.0" fill="rgb(227,104,25)" rx="2" ry="2" />
<text  x="829.92" y="463.5" >sock_common_setsockopt</text>
</g>
<g >
<title>__dev_queue_xmit (1 samples, 7.69%)</title><rect x="826.9" y="101" width="90.8" height="15.0" fill="rgb(244,182,43)" rx="2" ry="2" />
<text  x="829.92" y="111.5" >__dev_queu..</text>
</g>
<g >
<title>do_IRQ (1 samples, 7.69%)</title><rect x="463.8" y="501" width="90.8" height="15.0" fill="rgb(212,33,8)" rx="2" ry="2" />
<text  x="466.85" y="511.5" >do_IRQ</text>
</g>
<g >
<title>ep_unregister_pollwait.isra.0 (1 samples, 7.69%)</title><rect x="1099.2" y="469" width="90.8" height="15.0" fill="rgb(232,127,30)" rx="2" ry="2" />
<text  x="1102.23" y="479.5" >ep_unregis..</text>
</g>
<g >
<title>__ip_finish_output (1 samples, 7.69%)</title><rect x="826.9" y="149" width="90.8" height="15.0" fill="rgb(215,47,11)" rx="2" ry="2" />
<text  x="829.92" y="159.5" >__ip_finis..</text>
</g>
<g >
<title>ep_remove (1 samples, 7.69%)</title><rect x="1099.2" y="485" width="90.8" height="15.0" fill="rgb(249,203,48)" rx="2" ry="2" />
<text  x="1102.23" y="495.5" >ep_remove</text>
</g>
<g >
<title>irq_exit (1 samples, 7.69%)</title><rect x="826.9" y="373" width="90.8" height="15.0" fill="rgb(249,206,49)" rx="2" ry="2" />
<text  x="829.92" y="383.5" >irq_exit</text>
</g>
<g >
<title>dev_queue_xmit (1 samples, 7.69%)</title><rect x="826.9" y="117" width="90.8" height="15.0" fill="rgb(222,78,18)" rx="2" ry="2" />
<text  x="829.92" y="127.5" >dev_queue_..</text>
</g>
</g>
</svg>
